<?xml version="1.0" encoding="utf-8"?>
<!-- Generator: Adobe Illustrator 27.2.0, SVG Export Plug-In . SVG Version: 6.00 Build 0)  -->
<svg version="1.1" id="Layer_1" xmlns="http://www.w3.org/2000/svg" xmlns:xlink="http://www.w3.org/1999/xlink" x="0px" y="0px"
	 viewBox="0 0 102.64 126.13" style="enable-background:new 0 0 102.64 126.13;" xml:space="preserve">
<g>
	<g>
		<g>
			<path d="M77.04,123.65H25.26c-9.06,0-16.42-7.37-16.42-16.42V35.64c0-2.34,1.9-4.24,4.24-4.24h76.15c2.34,0,4.24,1.9,4.24,4.24
				v71.58C93.46,116.28,86.1,123.65,77.04,123.65z M17.32,39.88v67.34c0,4.38,3.56,7.95,7.94,7.95h51.78c4.38,0,7.94-3.56,7.94-7.95
				V39.88H17.32z"/>
		</g>
		<g>
			<path d="M95.95,39.88H6.35c-2.34,0-4.24-1.9-4.24-4.24v-5.97c0-8.01,6.51-14.52,14.52-14.52h69.04c8.01,0,14.52,6.51,14.52,14.52
				v5.97C100.19,37.98,98.29,39.88,95.95,39.88z M10.59,31.4h81.13v-1.73c0-3.33-2.71-6.04-6.04-6.04H16.63
				c-3.33,0-6.04,2.71-6.04,6.04V31.4z"/>
		</g>
		<g>
			<path d="M66.63,23.64H35.67c-2.34,0-4.24-1.9-4.24-4.24v-3.93c0-7.31,5.94-13.25,13.25-13.25h12.94
				c7.31,0,13.25,5.94,13.25,13.25v3.93C70.87,21.74,68.98,23.64,66.63,23.64z M39.92,15.16h22.47c-0.16-2.49-2.23-4.47-4.76-4.47
				H44.68C42.15,10.69,40.07,12.67,39.92,15.16z"/>
		</g>
		<g>
			<path d="M33.85,102.02c-2.34,0-4.24-1.9-4.24-4.24V58.67c0-2.34,1.9-4.24,4.24-4.24c2.34,0,4.24,1.9,4.24,4.24v39.11
				C38.09,100.12,36.19,102.02,33.85,102.02z"/>
		</g>
		<g>
			<path d="M51.15,102.02c-2.34,0-4.24-1.9-4.24-4.24V58.67c0-2.34,1.9-4.24,4.24-4.24c2.34,0,4.24,1.9,4.24,4.24v39.11
				C55.39,100.12,53.49,102.02,51.15,102.02z"/>
		</g>
		<g>
			<path d="M68.45,102.02c-2.34,0-4.24-1.9-4.24-4.24V58.67c0-2.34,1.9-4.24,4.24-4.24c2.34,0,4.24,1.9,4.24,4.24v39.11
				C72.69,100.12,70.79,102.02,68.45,102.02z"/>
		</g>
	</g>
</g>
</svg>
